<svg width="209" height="141" viewBox="0 0 209 141" fill="none" xmlns="http://www.w3.org/2000/svg">
<path fill-rule="evenodd" clip-rule="evenodd" d="M37.555 21.7364C37.51 25.4921 37.0795 45.7704 37.0795 45.7704C31.8575 42.7029 19.8515 35.2722 13.6032 30.0889C6.34192 24.0655 4.33757 26.3836 2.86822 28.0829L2.86821 28.083C2.75707 28.2115 2.649 28.3365 2.54195 28.454C1.01946 30.1261 2.23388 33.2708 3.02437 35.221L35.6408 121.02C38.7304 129.474 43.7243 136.969 52.2413 135.815C78.8147 132.212 101.175 126.039 124.207 109.917C139.297 99.355 154.33 87.8416 159.564 79.1141C163.268 72.9374 161.797 68.2028 160.694 64.6554C160.305 63.4011 159.961 62.2952 159.909 61.3264L156.992 62.9494L148.82 60.7083L148.178 67.8532L147.492 68.2353L136.974 66.966L135.876 74.6982L134.662 75.3736L126.165 76.547L126.148 80.1109L117.5 84.9227L125.234 74.709L131.443 72.9295L132.395 65.2518L133.342 64.0013L141.04 62.9382L142.631 51.7328L143.601 50.4521L153.569 49.0756L153.097 37.9115L156.868 32.9307C156.28 29.7935 154.777 22.4635 153.476 18.241C152.174 14.0185 149.941 15.4441 148.987 16.6848C139.091 22.2632 116.388 35.1131 104.738 41.885C91.6723 28.8073 74.2784 34.2584 67.2147 38.6187C62.4578 33.3031 51.5287 21.6783 45.8669 17.7041C40.2051 13.7299 37.5999 17.9807 37.555 21.7364Z" fill="black"/>
<path d="M97.052 53.9915C97.2164 55.1826 97.1447 56.3946 96.8408 57.558C96.5369 58.7215 96.0069 59.8137 95.2809 60.7723C94.5549 61.731 93.6472 62.5372 92.6097 63.145C91.5721 63.7528 90.425 64.1503 89.2338 64.3148C88.0426 64.4793 86.8306 64.4076 85.6672 64.1037C84.5037 63.7998 83.4115 63.2698 82.4529 62.5438C81.4943 61.8178 80.688 60.9101 80.0802 59.8725C79.4724 58.835 79.0749 57.6878 78.9104 56.4966L87.9812 55.244L97.052 53.9915Z" fill="white"/>
<line x1="185.496" y1="11.1211" x2="168.709" y2="27.4776" stroke="black" stroke-width="3" stroke-linecap="square"/>
<line x1="199.698" y1="30.9028" x2="174.768" y2="39.3719" stroke="black" stroke-width="3" stroke-linecap="square"/>
<line x1="180.361" y1="52.68" x2="203.794" y2="53.1586" stroke="black" stroke-width="3" stroke-linecap="square"/>
</svg>
