<?xml version="1.0" standalone="no"?>
<!DOCTYPE svg PUBLIC "-//W3C//DTD SVG 20010904//EN"
 "http://www.w3.org/TR/2001/REC-SVG-20010904/DTD/svg10.dtd">
<svg version="1.0" xmlns="http://www.w3.org/2000/svg"
 width="836.000000pt" height="836.000000pt" viewBox="0 0 836.000000 836.000000"
 preserveAspectRatio="xMidYMid meet">
<metadata>
Created by potrace 1.14, written by Peter Selinger 2001-2017
</metadata>
<g transform="translate(0.000000,836.000000) scale(0.100000,-0.100000)"
fill="#000000" stroke="none">
<path d="M7328 6552 c-158 -159 -640 -627 -649 -630 -18 -7 -8 -29 31 -67 l40
-39 44 44 c24 25 153 151 286 280 286 277 420 410 420 416 0 11 -71 74 -82 73
-7 0 -47 -35 -90 -77z"/>
<path d="M6008 6372 c-109 -74 -138 -92 -142 -92 -3 0 -30 -16 -60 -35 -30
-19 -57 -35 -60 -35 -3 0 -95 -51 -203 -113 -109 -62 -219 -123 -245 -137 -27
-14 -48 -28 -48 -32 0 -5 -9 -8 -20 -8 -11 0 -20 -4 -20 -9 0 -5 -15 -14 -32
-22 -18 -7 -35 -16 -38 -19 -3 -3 -36 -24 -75 -45 -93 -51 -105 -58 -289 -164
-88 -50 -161 -91 -163 -91 -2 0 -22 -12 -44 -26 -23 -14 -62 -37 -87 -51 -84
-47 -106 -60 -194 -112 -48 -28 -90 -51 -95 -51 -4 0 -26 17 -48 37 -22 19
-56 47 -75 62 -19 14 -37 28 -40 32 -3 3 -12 9 -20 12 -8 4 -28 16 -45 27 -34
23 -101 55 -160 77 -22 8 -49 19 -60 23 -25 10 -109 30 -150 36 -16 2 -41 6
-55 9 -28 6 -228 6 -275 1 -99 -12 -258 -46 -300 -66 -22 -10 -70 -24 -70 -21
0 3 -141 -65 -179 -86 l-29 -16 -45 49 c-103 114 -275 294 -378 398 -101 100
-157 154 -294 281 -51 46 -159 124 -207 149 -99 50 -202 7 -244 -100 -15 -41
-23 -260 -33 -934 -1 -66 -5 -116 -11 -117 -12 -2 -168 87 -173 99 -2 4 -8 8
-13 8 -6 0 -22 8 -37 18 -15 11 -45 30 -67 44 -209 132 -539 357 -555 378 -3
3 -21 17 -40 30 -31 22 -57 42 -94 75 -26 23 -76 55 -85 55 -5 0 -11 4 -13 8
-7 16 -108 52 -148 52 -56 0 -93 -21 -139 -79 -36 -46 -38 -53 -35 -108 3 -56
14 -92 103 -325 23 -60 59 -156 82 -215 22 -60 54 -142 69 -183 16 -41 56
-147 90 -235 34 -88 66 -171 70 -185 5 -14 40 -108 80 -210 39 -102 87 -228
106 -280 19 -52 39 -104 44 -115 9 -19 53 -134 55 -145 1 -3 6 -16 12 -30 6
-14 27 -70 47 -125 20 -55 43 -114 51 -132 8 -17 15 -34 15 -38 0 -4 11 -34
24 -68 13 -34 38 -100 56 -147 18 -47 36 -94 40 -105 37 -92 204 -532 272
-715 27 -74 55 -148 63 -165 7 -16 18 -46 25 -65 7 -19 16 -44 21 -55 4 -11
23 -58 40 -105 35 -92 104 -229 152 -300 17 -25 61 -75 99 -112 139 -137 282
-171 521 -122 15 3 44 7 65 9 20 2 46 6 57 8 11 3 40 8 65 11 25 3 55 8 66 10
12 2 37 7 55 10 19 3 44 8 55 10 12 2 37 7 55 10 19 3 45 8 59 11 14 3 38 8
54 10 15 2 36 7 46 10 10 3 29 8 42 10 77 15 140 29 188 42 30 8 69 17 85 20
17 3 38 9 48 14 9 5 17 8 17 6 0 -3 37 6 83 20 45 13 93 26 106 29 14 3 28 7
33 10 4 3 16 7 25 9 47 10 391 131 468 165 22 10 90 39 150 65 108 46 425 204
435 216 3 3 20 12 38 20 17 8 32 17 32 21 0 5 4 8 10 8 26 0 419 259 660 435
45 33 92 67 104 75 31 22 220 163 226 170 3 3 23 19 45 35 40 30 67 51 89 70
6 6 34 28 61 49 28 22 57 47 66 55 9 9 36 32 60 51 102 83 326 300 402 390
100 119 186 278 204 376 18 105 3 250 -40 369 -8 22 -17 57 -21 77 -4 21 -11
40 -16 43 -5 3 -31 -8 -59 -24 -50 -30 -51 -30 -98 -16 -27 8 -49 15 -50 15
-2 0 -4 0 -5 1 -2 0 -10 2 -18 4 -14 3 -152 41 -192 52 -15 4 -18 -1 -19 -28
0 -19 -2 -45 -4 -59 -2 -14 -6 -61 -9 -104 -8 -99 -15 -109 -75 -101 -25 4
-62 9 -81 11 -19 2 -53 6 -75 8 -215 28 -244 28 -231 8 2 -4 1 -28 -4 -52 -8
-43 -17 -104 -25 -178 -9 -75 -19 -82 -135 -98 -25 -3 -54 -7 -65 -9 -11 -1
-47 -6 -79 -10 -33 -4 -67 -9 -75 -10 -9 -2 -23 -4 -31 -4 -12 -1 -15 -16 -15
-72 0 -61 -3 -73 -20 -83 -11 -6 -22 -13 -25 -16 -3 -3 -30 -18 -60 -35 -30
-16 -73 -39 -95 -52 -22 -12 -51 -28 -65 -34 -14 -6 -33 -18 -43 -26 -45 -41
-19 5 65 115 51 67 118 155 148 196 48 65 61 76 105 90 72 22 168 49 183 52
20 4 21 6 27 60 3 27 7 65 10 84 3 19 7 58 10 85 9 76 10 80 27 108 13 19 29
27 70 32 99 14 172 25 222 34 23 4 40 12 41 21 1 8 6 40 10 70 4 30 8 64 10
75 2 11 6 43 9 71 4 28 8 60 10 71 3 11 7 44 11 74 12 101 34 122 136 133 31
4 65 8 75 10 11 2 44 7 74 10 30 4 78 10 105 14 l50 7 -1 125 c-1 69 -3 170
-5 226 l-3 101 73 96 c78 102 79 107 56 197 -3 14 -8 34 -9 45 -2 11 -13 65
-25 120 -12 55 -24 109 -26 120 -14 66 -67 238 -83 266 -10 18 -32 39 -48 45
-26 11 -35 10 -56 -4z"/>
<path d="M7938 5810 c-43 -16 -78 -27 -78 -24 0 2 -13 -2 -29 -11 -17 -8 -38
-17 -48 -18 -10 -2 -25 -7 -33 -10 -15 -6 -249 -86 -510 -173 -74 -25 -142
-48 -150 -51 -8 -4 -17 -7 -20 -8 -3 -1 -12 -4 -20 -8 -8 -3 -39 -13 -67 -22
-29 -9 -55 -21 -59 -26 -7 -13 25 -109 37 -109 5 0 17 4 27 9 13 8 192 69 222
76 3 1 12 5 20 8 19 8 310 107 330 112 22 5 494 168 499 171 5 4 -31 114 -38
114 -3 -1 -41 -14 -83 -30z"/>
<path d="M7162 4951 c-4 -3 -8 -31 -7 -61 l0 -55 40 -1 c22 -1 198 -5 390 -9
193 -4 411 -8 487 -10 l136 -2 4 54 c1 30 -1 58 -6 61 -6 3 -71 6 -147 7 -75
2 -141 5 -147 9 -6 3 -13 2 -17 -4 -4 -6 -10 -8 -15 -5 -4 3 -152 8 -327 11
-175 3 -333 7 -350 8 -18 1 -36 0 -41 -3z"/>
</g>
</svg>
